<?xml version="1.0" encoding="utf-8"?>
<!-- Generator: Adobe Illustrator 15.0.0, SVG Export Plug-In . SVG Version: 6.00 Build 0)  -->
<!DOCTYPE svg PUBLIC "-//W3C//DTD SVG 1.1//EN" "http://www.w3.org/Graphics/SVG/1.1/DTD/svg11.dtd">
<svg version="1.1" id="Layer_1" xmlns="http://www.w3.org/2000/svg" xmlns:xlink="http://www.w3.org/1999/xlink" x="0px" y="0px"
	 width="2304px" height="2304px" viewBox="0 0 2304 2304" enable-background="new 0 0 2304 2304" xml:space="preserve">
<g>
	<g>
		<g>
			<path fill="#6B6288" d="M205.808,488.756V1071.2h-76.046V488.756H205.808z"/>
			<path fill="#6B6288" d="M743.313,1052.188c-26.789,13.826-82.959,27.653-153.82,27.653
				c-164.19,0-286.901-103.699-286.901-294.678c0-182.337,123.574-305.047,304.184-305.047c71.725,0,118.39,15.555,138.265,25.061
				l-19.011,62.219c-27.653-13.827-68.269-24.196-116.661-24.196c-136.538,0-227.274,87.28-227.274,239.372
				c0,142.586,82.095,233.323,222.953,233.323c46.664,0,93.329-9.506,123.575-24.196L743.313,1052.188z"/>
			<path fill="#6B6288" d="M1226.365,1052.188c-26.787,13.826-82.958,27.653-153.819,27.653c-164.19,0-286.9-103.699-286.9-294.678
				c0-182.337,123.574-305.047,304.184-305.047c71.725,0,118.389,15.555,138.266,25.061l-19.012,62.219
				c-27.654-13.827-68.269-24.196-116.662-24.196c-136.538,0-227.274,87.28-227.274,239.372
				c0,142.586,82.096,233.323,222.954,233.323c46.663,0,93.328-9.506,123.574-24.196L1226.365,1052.188z"/>
			<path fill="#6B6288" d="M1321.41,496.534c36.295-6.913,83.824-12.098,144.314-12.098c74.318,0,128.76,17.283,163.326,48.393
				c31.975,27.653,51.85,69.997,51.85,120.983c0,52.713-15.555,94.193-45.801,124.438c-39.752,42.344-104.563,63.948-178.018,63.948
				c-22.467,0-43.207-0.864-60.49-5.186V1071.2h-75.182V496.534z M1396.592,775.657c16.42,4.321,37.158,6.048,62.219,6.048
				c90.736,0,146.043-44.071,146.043-123.573c0-76.91-54.441-114.069-137.4-114.069c-32.838,0-57.898,2.592-70.861,6.049V775.657z"
				/>
			<path fill="#6B6288" d="M2081.865,798.125H1856.32v209.99h252.334v63.084h-328.381V488.756h315.418v63.083H1856.32v184.066
				h225.545V798.125z"/>
		</g>
		<g>
			<path fill="#D25C90" d="M238.573,466.913v582.443h-76.046V466.913H238.573z"/>
			<path fill="#D25C90" d="M776.078,1030.344c-26.789,13.827-82.959,27.654-153.82,27.654
				c-164.19,0-286.901-103.699-286.901-294.678c0-182.337,123.574-305.048,304.184-305.048c71.725,0,118.39,15.555,138.265,25.061
				l-19.012,62.219c-27.653-13.827-68.268-24.196-116.661-24.196c-136.537,0-227.274,87.279-227.274,239.372
				c0,142.586,82.095,233.323,222.953,233.323c46.664,0,93.329-9.506,123.575-24.197L776.078,1030.344z"/>
			<path fill="#D25C90" d="M1259.131,1030.344c-26.787,13.827-82.957,27.654-153.819,27.654
				c-164.191,0-286.901-103.699-286.901-294.678c0-182.337,123.574-305.048,304.183-305.048c71.726,0,118.39,15.555,138.265,25.061
				l-19.012,62.219c-27.652-13.827-68.268-24.196-116.661-24.196c-136.537,0-227.273,87.279-227.273,239.372
				c0,142.586,82.095,233.323,222.953,233.323c46.665,0,93.329-9.506,123.575-24.197L1259.131,1030.344z"/>
			<path fill="#D25C90" d="M1354.176,474.69c36.295-6.913,83.822-12.098,144.314-12.098c74.316,0,128.76,17.283,163.326,48.393
				c31.973,27.653,51.85,69.997,51.85,120.982c0,52.713-15.555,94.193-45.801,124.439c-39.752,42.343-104.563,63.947-178.018,63.947
				c-22.469,0-43.207-0.864-60.49-5.185v234.188h-75.182V474.69z M1429.357,753.813c16.418,4.321,37.158,6.048,62.219,6.048
				c90.736,0,146.043-44.071,146.043-123.574c0-76.91-54.441-114.069-137.4-114.069c-32.84,0-57.898,2.592-70.861,6.049V753.813z"/>
			<path fill="#D25C90" d="M2114.631,776.282h-225.545v209.99h252.334v63.084h-328.381V466.913h315.418v63.083h-239.371v184.065
				h225.545V776.282z"/>
		</g>
	</g>
	<g>
		<path fill="#6B6288" d="M101.362,1836.213V1789.5l59.688-57.958c143.596-136.676,208.475-209.34,209.34-294.114
			c0-57.093-27.682-109.859-111.59-109.859c-51.038,0-93.424,25.951-119.376,47.577l-24.221-53.633
			c38.927-32.872,94.29-57.093,159.168-57.093c121.105,0,172.143,83.045,172.143,163.493c0,103.806-75.258,187.714-193.769,301.899
			l-44.983,41.521v1.731h252.592v63.147H101.362z"/>
		<path fill="#6B6288" d="M1065.008,1549.019c0,191.175-70.934,296.71-195.499,296.71c-109.86,0-184.254-102.94-185.985-288.924
			c0-188.579,81.314-292.385,195.5-292.385C997.536,1264.42,1065.008,1369.955,1065.008,1549.019z M759.649,1557.669
			c0,146.192,44.982,229.236,114.186,229.236c77.854,0,115.05-90.83,115.05-234.426c0-138.407-35.467-229.236-114.186-229.236
			C808.091,1323.243,759.649,1404.558,759.649,1557.669z"/>
		<path fill="#6B6288" d="M1420.531,1344.868h-1.73l-97.75,52.769l-14.705-57.958l122.836-65.744h64.877v562.278h-73.527V1344.868z"
			/>
		<path fill="#6B6288" d="M2168.781,1273.935v50.173l-244.807,512.105h-78.719l243.941-497.399v-1.729h-275.084v-63.149H2168.781z"
			/>
	</g>
	<g>
		<path fill="#D25C90" d="M135.219,1814.369v-46.713l59.688-57.957c143.596-136.677,208.475-209.34,209.34-294.114
			c0-57.093-27.682-109.859-111.59-109.859c-51.038,0-93.424,25.95-119.376,47.576l-24.221-53.633
			c38.927-32.871,94.29-57.092,159.168-57.092c121.105,0,172.143,83.044,172.143,163.492c0,103.806-75.259,187.714-193.769,301.899
			l-44.982,41.521v1.731h252.592v63.147H135.219z"/>
		<path fill="#D25C90" d="M1098.866,1527.175c0,191.175-70.934,296.71-195.499,296.71c-109.86,0-184.254-102.94-185.985-288.924
			c0-188.579,81.314-292.384,195.5-292.384C1031.393,1242.577,1098.866,1348.112,1098.866,1527.175z M793.506,1535.826
			c0,146.191,44.982,229.235,114.186,229.235c77.854,0,115.05-90.829,115.05-234.426c0-138.407-35.466-229.236-114.185-229.236
			C841.948,1301.399,793.506,1382.714,793.506,1535.826z"/>
		<path fill="#D25C90" d="M1454.387,1323.025h-1.729l-97.75,52.768l-14.705-57.958l122.836-65.743h64.877v562.277h-73.529V1323.025z
			"/>
		<path fill="#D25C90" d="M2202.639,1252.092v50.173l-244.807,512.104h-78.719l243.941-497.398v-1.73h-275.084v-63.148H2202.639z"/>
	</g>
</g>
</svg>
