<?xml version="1.0" encoding="utf-8"?>
<!-- Generator: Adobe Illustrator 17.0.0, SVG Export Plug-In . SVG Version: 6.00 Build 0)  -->
<!DOCTYPE svg PUBLIC "-//W3C//DTD SVG 1.1//EN" "http://www.w3.org/Graphics/SVG/1.1/DTD/svg11.dtd">
<svg version="1.1" id="Layer_1" xmlns="http://www.w3.org/2000/svg" xmlns:xlink="http://www.w3.org/1999/xlink" x="0px" y="0px"
	 width="2304px" height="2304px" viewBox="0 0 2304 2304" enable-background="new 0 0 2304 2304" xml:space="preserve">
<g>
	<g>
		<path fill="#686386" d="M23.348,970.547H90.77V298.73H23.348V191.576H284.61V298.73h-68.627v671.817h68.627v107.154H23.348
			V970.547z"/>
		<path fill="#686386" d="M749.335,792.359c-1.204,176.985-65.015,299.789-185.412,299.789
			c-140.865,0-208.287-145.681-208.287-447.878c0-282.933,50.567-467.141,180.596-467.141c42.14,0,73.443,18.059,96.318,57.791
			h2.408v-43.343h107.154v287.75H634.958c0-115.581-26.487-185.412-79.462-185.412c-52.975,0-62.606,39.732-62.606,334.705
			c0,279.321,13.243,346.744,73.442,346.744c42.14,0,74.646-43.343,73.443-213.104L749.335,792.359z"/>
		<path fill="#686386" d="M1238.135,792.359c-1.204,176.985-65.015,299.789-185.412,299.789
			c-140.865,0-208.287-145.681-208.287-447.878c0-282.933,50.567-467.141,180.596-467.141c42.14,0,73.443,18.059,96.318,57.791
			h2.408v-43.343h107.154v287.75h-107.154c0-115.581-26.487-185.412-79.462-185.412c-52.975,0-62.606,39.732-62.606,334.705
			c0,279.321,13.243,346.744,73.442,346.744c42.14,0,74.646-43.343,73.443-213.104L1238.135,792.359z"/>
		<path fill="#686386" d="M1388.618,298.73h-72.237V191.576h219.122c155.314,0,244.407,104.746,244.407,274.506
			c0,270.894-196.248,270.894-266.079,270.894v233.571h73.442v107.154h-270.892V970.547h72.237V298.73z M1513.832,629.823
			c65.013,0,134.846-4.815,134.846-164.944c0-137.253-54.179-166.148-134.846-166.148V629.823z"/>
		<path fill="#686386" d="M1817.221,970.547h65.015V298.73h-65.015V191.576h408.147v258.854h-107.151V298.73h-110.765v268.486
			h90.297v107.154h-90.297v296.178h110.765V805.603h107.151v272.098h-408.147V970.547z"/>
		<path fill="#686386" d="M384.539,2142.856H26.959v-71.034c0-115.581,40.935-219.123,109.562-308.217l61.402-80.667
			c52.975-68.626,67.423-110.765,67.423-219.123c0-85.481-20.468-125.213-65.015-125.213s-68.627,42.139-68.627,117.99
			c0,16.856,4.816,56.586,7.224,83.074H35.387c-6.02-28.895-8.428-51.77-8.428-80.665c0-138.458,63.81-216.716,175.78-216.716
			c115.581,0,181.8,81.87,181.8,227.55c0,102.338-34.915,187.821-75.851,237.184l-79.462,93.91
			c-58.994,69.831-95.113,164.944-97.522,233.57h150.497v-161.332h102.338V2142.856z"/>
		<path fill="#686386" d="M683.11,1698.589c0-285.342,45.751-456.306,176.985-456.306c154.109,0,176.984,229.959,176.984,456.306
			c0,246.815-25.283,458.715-176.984,458.715C701.17,2157.304,683.11,1917.713,683.11,1698.589z M917.886,1871.962v-347.949
			c0-138.457-19.264-185.412-57.791-185.412c-36.119,0-57.791,44.548-57.791,176.985v356.376
			c0,139.66,20.467,189.023,57.791,189.023C902.234,2060.985,917.886,2005.603,917.886,1871.962z"/>
		<path fill="#686386" d="M1362.138,2040.517h52.974V1404.82c-20.467,15.652-31.302,20.467-52.974,25.283v-107.154
			c51.77-20.467,84.278-43.343,113.173-80.666h50.568v798.234h49.361v102.338h-213.102V2040.517z"/>
		<path fill="#686386" d="M2115.809,1497.526c2.41-91.502-15.65-158.925-55.383-158.925c-43.343,0-60.197,54.178-60.197,190.228
			v124.01c26.486-26.488,55.383-42.14,97.522-42.14c72.237,0,137.252,57.791,137.252,248.018
			c0,85.483-19.261,298.586-175.78,298.586c-157.719,0-178.188-168.557-178.188-439.45c0-207.084,7.225-262.467,27.693-338.317
			c25.283-92.706,91.501-137.253,156.516-137.253c98.726,0,157.719,96.318,154.109,255.243H2115.809z M2000.229,1918.916
			c0,99.929,16.854,142.069,57.79,142.069c42.14,0,57.79-40.934,57.79-201.063c0-124.01-15.65-163.741-61.401-163.741
			c-20.468,0-36.118,8.427-54.179,27.691V1918.916z"/>
	</g>
	<g>
		<path fill="#B95D8E" d="M68.997,940.114h67.422V268.297H68.997V161.143h261.262v107.154h-68.627v671.817h68.627v107.154H68.997
			V940.114z"/>
		<path fill="#B95D8E" d="M794.985,761.926c-1.204,176.985-65.015,299.789-185.412,299.789
			c-140.865,0-208.287-145.681-208.287-447.878c0-282.933,50.567-467.141,180.596-467.141c42.14,0,73.443,18.059,96.318,57.791
			h2.408v-43.343h107.154v287.75H680.607c0-115.581-26.487-185.412-79.462-185.412c-52.975,0-62.606,39.732-62.606,334.705
			c0,279.321,13.243,346.744,73.442,346.744c42.14,0,74.646-43.343,73.443-213.104L794.985,761.926z"/>
		<path fill="#B95D8E" d="M1283.785,761.926c-1.204,176.985-65.015,299.789-185.412,299.789
			c-140.865,0-208.287-145.681-208.287-447.878c0-282.933,50.567-467.141,180.595-467.141c42.14,0,73.443,18.059,96.318,57.791
			h2.408v-43.343h107.154v287.75h-107.154c0-115.581-26.487-185.412-79.462-185.412c-52.975,0-62.606,39.732-62.606,334.705
			c0,279.321,13.243,346.744,73.442,346.744c42.14,0,74.646-43.343,73.443-213.104L1283.785,761.926z"/>
		<path fill="#B95D8E" d="M1434.268,268.297h-72.237V161.143h219.122c155.314,0,244.407,104.746,244.407,274.506
			c0,270.894-196.248,270.894-266.079,270.894v233.571h73.442v107.154h-270.892V940.114h72.237V268.297z M1559.481,599.39
			c65.013,0,134.846-4.815,134.846-164.944c0-137.253-54.179-166.148-134.846-166.148V599.39z"/>
		<path fill="#B95D8E" d="M1862.87,940.114h65.015V268.297h-65.015V161.143h408.147v258.854h-107.152V268.297H2053.1v268.486h90.297
			v107.154H2053.1v296.178h110.765V775.17h107.152v272.098H1862.87V940.114z"/>
		<path fill="#B95D8E" d="M430.189,2112.423H72.609v-71.035c0-115.581,40.935-219.123,109.562-308.217l61.402-80.667
			c52.975-68.626,67.423-110.765,67.423-219.123c0-85.482-20.468-125.213-65.015-125.213s-68.627,42.139-68.627,117.99
			c0,16.856,4.816,56.586,7.224,83.074H81.037c-6.02-28.895-8.428-51.77-8.428-80.665c0-138.458,63.81-216.716,175.78-216.716
			c115.581,0,181.8,81.87,181.8,227.55c0,102.338-34.915,187.821-75.851,237.184l-79.462,93.91
			c-58.994,69.831-95.113,164.944-97.522,233.57h150.497v-161.332h102.338V2112.423z"/>
		<path fill="#B95D8E" d="M728.76,1668.156c0-285.342,45.751-456.306,176.985-456.306c154.109,0,176.984,229.959,176.984,456.306
			c0,246.815-25.283,458.715-176.984,458.715C746.82,2126.871,728.76,1887.28,728.76,1668.156z M963.535,1841.529V1493.58
			c0-138.457-19.264-185.412-57.791-185.412c-36.119,0-57.791,44.547-57.791,176.985v356.376
			c0,139.66,20.467,189.023,57.791,189.023C947.883,2030.552,963.535,1975.17,963.535,1841.529z"/>
		<path fill="#B95D8E" d="M1407.787,2010.084h52.974v-635.697c-20.466,15.652-31.302,20.467-52.974,25.283v-107.154
			c51.77-20.467,84.278-43.343,113.173-80.666h50.568v798.234h49.361v102.338h-213.102V2010.084z"/>
		<path fill="#B95D8E" d="M2161.458,1467.094c2.41-91.502-15.65-158.925-55.383-158.925c-43.343,0-60.197,54.178-60.197,190.228
			v124.01c26.486-26.488,55.383-42.14,97.522-42.14c72.237,0,137.251,57.791,137.251,248.018
			c0,85.483-19.261,298.587-175.78,298.587c-157.719,0-178.187-168.557-178.187-439.45c0-207.084,7.225-262.467,27.693-338.317
			c25.282-92.706,91.501-137.253,156.516-137.253c98.726,0,157.719,96.318,154.109,255.243H2161.458z M2045.879,1888.483
			c0,99.929,16.854,142.069,57.79,142.069c42.14,0,57.79-40.934,57.79-201.063c0-124.01-15.65-163.741-61.401-163.741
			c-20.468,0-36.118,8.427-54.179,27.691V1888.483z"/>
	</g>
</g>
</svg>
